<svg xmlns="http://www.w3.org/2000/svg" viewBox="0 0 512 512">
  <defs>
    <linearGradient id="bg" x1="0%" y1="0%" x2="100%" y2="100%">
      <stop offset="0%" style="stop-color:#1a2035"/>
      <stop offset="100%" style="stop-color:#0a0e1a"/>
    </linearGradient>
    <linearGradient id="plane" x1="0%" y1="0%" x2="100%" y2="100%">
      <stop offset="0%" style="stop-color:#60a5fa"/>
      <stop offset="100%" style="stop-color:#3b82f6"/>
    </linearGradient>
  </defs>
  <rect width="512" height="512" rx="96" fill="url(#bg)"/>
  <g transform="translate(256, 260) scale(3.2)" fill="url(#plane)">
    <path d="M17.8 19.2L16 11l3.5-3.5C21 6 21.5 4 21 3c-1-.5-3 0-4.5 1.5L13 8 4.8 6.2c-.5-.1-.9.1-1.1.5l-.3.5c-.2.5-.1 1 .3 1.3L9 12l-2 3H4l-1 1 3 2 2 3 1-1v-3l3-2 3.5 5.3c.3.4.8.5 1.3.3l.5-.2c.4-.3.6-.7.5-1.2z" transform="translate(-12, -12)"/>
  </g>
  <circle cx="380" cy="130" r="28" fill="none" stroke="#ef4444" stroke-width="3" opacity="0.6"/>
  <circle cx="380" cy="130" r="8" fill="#ef4444" opacity="0.8"/>
</svg>
